<svg xmlns="http://www.w3.org/2000/svg" xmlns:xlink="http://www.w3.org/1999/xlink" version="1.1" id="Layer_1" x="0px" y="0px" viewBox="5.0 -10.0 100.0 135.0" enable-background="new 0 0 100 100" xml:space="preserve">
<path fill="#ef5e50" d="M50,8C27.234,8,8,27.233,8,50s19.234,42,42,42s42-19.233,42-42S72.766,8,50,8z M50,88  c-20.598,0-38-17.402-38-38s17.402-38,38-38s38,17.402,38,38S70.598,88,50,88z"></path>
<path fill="#ef5e50" d="M58,47h10c1.104,0,2-0.896,2-2s-0.896-2-2-2H58c-1.104,0-2,0.896-2,2S56.896,47,58,47z"></path>
<path fill="#ef5e50" d="M32,47h10c1.104,0,2-0.896,2-2s-0.896-2-2-2H32c-1.104,0-2,0.896-2,2S30.896,47,32,47z"></path>
<path fill="#ef5e50" d="M69.341,62.271c-0.954-0.554-2.179-0.229-2.734,0.726C63.384,68.55,57.021,71.999,50,71.999s-13.385-3.449-16.609-9.002c-0.555-0.956-1.779-1.281-2.733-0.726c-0.956,0.555-1.28,1.778-0.726,2.733  C33.868,71.786,41.558,75.999,50,75.999c8.441,0,16.131-4.213,20.067-10.994C70.621,64.049,70.296,62.825,69.341,62.271z"></path>
</svg>